<svg fill="none" height="1024" viewBox="0 0 1047 1024" width="1047" xmlns="http://www.w3.org/2000/svg"><rect fill="#ea3e3c" height="1024" rx="512" width="1047"/><g fill="#fff"><path d="m543 180.199c44.927-.434 44.927-.434 64.589 2.927 1.741.264 3.482.527 5.223.788 26.45 4.167 50.534 12.821 74.437 23.602.909.404 1.818.808 2.754 1.224 19.707 8.803 37.667 19.951 54.3 32.924.916.703 1.831 1.406 2.775 2.13 14.435 11.414 27.925 23.831 39.208 37.871.896 1.088 1.793 2.175 2.691 3.262 18.792 23.026 33.566 48.629 43.598 75.765.282.758.565 1.517.856 2.299 4.15 11.356 6.668 22.989 8.832 34.775.183.934.366 1.868.554 2.831 1.79 9.973 1.919 19.744 1.912 29.826.006 1.877.013 3.754.022 5.631.018 5.064.024 10.129.025 15.194.002 3.18.006 6.36.012 9.541.02 11.142.029 22.284.027 33.426-.001 10.307.021 20.613.055 30.92.029 8.908.04 17.815.039 26.723-.001 5.294.005 10.587.028 15.88.266 65.388.266 65.388-12.362 93.45-.5 1.803-.969 3.612-1.413 5.427-1.378 5.081-3.204 9.726-5.522 14.513-1.289 2.671-2.521 5.346-3.725 8.049-8.099 17.973-18.313 34.629-31.323 50.062-.453.548-.906 1.097-1.373 1.662-7.83 9.473-16.471 18.124-25.54 26.631-.808.765-.808.765-1.633 1.545-6.92 6.529-14.186 12.393-22.049 17.968-1.098.794-2.195 1.587-3.326 2.405-8.229 5.9-16.791 11.175-25.739 16.132-1.102.621-1.102.621-2.226 1.254-28.98 16.231-61.212 27.179-94.658 32.894-1.333.239-1.333.239-2.692.484-22.454 3.885-45.639 2.635-68.356 2.443 0-16.098 0-32.196 0-48.782 6.927-.705 13.854-1.409 20.991-2.134 49.846-5.327 95.859-17.214 135.099-46.648.618-.46 1.236-.92 1.873-1.393 21.127-15.748 38.719-34.429 51.952-56.17.445-.727.891-1.454 1.349-2.204 15.747-25.89 29.031-56.823 28.929-86.789.002-.768.003-1.536.005-2.327.004-2.553.001-5.106-.002-7.659.001-1.839.003-3.677.005-5.516.005-4.981.003-9.962 0-14.944-.003-5.222 0-10.445.001-15.668.002-8.773 0-17.547-.005-26.32-.006-10.125-.004-20.25.002-30.375.004-8.708.005-17.415.002-26.123-.001-5.194-.002-10.388.002-15.583.003-4.887.001-9.774-.005-14.662-.002-1.787-.001-3.574.001-5.362.017-14.047-.92-26.797-4.987-40.44-.188-.636-.377-1.273-.571-1.929-3.589-12.039-8.201-23.511-13.962-34.84-.532-1.058-.532-1.058-1.075-2.137-8.535-16.75-19.285-31.708-32.582-45.659-1.827-1.92-3.632-3.855-5.432-5.795-1.121-1.203-2.242-2.405-3.364-3.606-.495-.53-.99-1.061-1.499-1.607-6.334-6.696-13.111-12.441-20.906-17.723-1.109-.763-1.109-.763-2.241-1.541-2.383-1.633-4.78-3.247-7.178-4.861-.923-.632-1.846-1.264-2.797-1.916-6.821-4.607-13.798-8.583-21.289-12.231-1.668-.815-1.668-.815-3.37-1.646-10.608-5.068-21.484-9.018-32.827-12.501-1.253-.396-2.506-.792-3.797-1.2-14.234-4.246-29.001-6.569-43.838-8.251-.996-.117-1.992-.233-3.018-.353-11.833-1.249-23.479-1.431-35.466-1.903 0-17.708 0-35.416 0-53.66z"/><path d="m504 180.014v51.748c-10.652.483-10.652.483-21.519.976-5.369.62-10.621 1.284-15.938 2.136-1.372.215-2.743.431-4.157.653-40.086 6.51-82.464 20.04-113.325 45.053-.897.721-1.795 1.443-2.719 2.186-1.832 1.487-3.656 2.982-5.473 4.485-2.374 1.957-4.781 3.874-7.208 5.778-3.254 2.582-6.361 5.214-9.347 8.055-.656.612-1.312 1.224-1.988 1.854-19.609 18.924-34.858 42.419-45.355 66.492-.305.694-.611 1.387-.926 2.101-12.24 28.65-12.955 59.78-12.711 90.048.033 4.922.03 9.845.032 14.767.008 8.234.04 16.468.089 24.702.062 10.523.084 21.046.094 31.57.008 9.136.035 18.272.065 27.408.009 2.9.015 5.799.021 8.699.011 4.566.033 9.132.063 13.698.01 1.661.016 3.322.018 4.982.089 52.811 23.994 102.31 63.826 140.355.545.523 1.091 1.046 1.653 1.585 35.69 33.983 81.762 51.879 131.766 60.903.984.179 1.968.357 2.981.541 13.277 2.351 26.538 3.226 40.058 4.341v48.819c-63.655.896-121.9-9.8-175.382-42.961-.718-.44-1.437-.881-2.176-1.334-11.011-6.777-21.292-14.026-31.179-22.099-.605-.488-1.21-.977-1.833-1.48-25.813-20.893-46.883-46.391-61.73-74.741-.96-1.822-1.945-3.631-2.937-5.44-14.095-26.029-20.713-54.766-24.957-83.346-.182-1.185-.365-2.369-.552-3.59-.545-3.986-.689-7.94-.697-11.954-.008-1.107-.008-1.107-.017-2.236-.016-2.453-.026-4.906-.035-7.359-.01-1.768-.021-3.537-.032-5.305-.033-5.802-.055-11.604-.075-17.406-.004-.994-.007-1.987-.011-3.011-.033-9.411-.062-18.822-.08-28.232-.023-11.94-.068-23.878-.144-35.817-.051-8.444-.077-16.887-.084-25.331-.006-5.014-.021-10.027-.065-15.042-.435-52.509 8.937-102.543 38.375-148.37.708-1.105 1.417-2.21 2.147-3.349 8.99-13.601 19.184-26.299 30.822-38.122 1.339-1.364 2.656-2.746 3.971-4.129 9.565-9.947 20.546-18.462 31.921-26.652 1.034-.76 2.067-1.52 3.132-2.303 55.287-39.832 122.288-54.86 191.618-54.326z"/><path d="m709.201 478.004c.7-.001 1.399-.002 2.12-.003 1.486-.001 2.973.001 4.459.005 2.258.005 4.515 0 6.773-.006 1.445.001 2.891.002 4.336.004 1.312.001 2.624.002 3.975.003 5.864.201 10.136 5.441 10.136 11.308v18.491c0 10.276-6.542 19.412-16.27 22.721-.315.107-.631.215-.947.322-3.453 1.403-6.84 2.812-10.223 4.332-1.739.765-3.48 1.528-5.221 2.288-.844.369-1.687.738-2.557 1.118-3.604 1.545-7.256 2.979-10.919 4.404-7.446 2.911-14.762 6.042-22.068 9.229-5.494 2.392-11.005 4.743-16.545 7.047-15.258 6.346-30.242 13-45.063 20.147-3.455 1.659-6.927 3.281-10.415 4.884-.95.438-1.9.875-2.879 1.327-1.331.534-1.844.74-2.542.819-.878.1-1.515.904-1.257 1.749.54 2.135.765 4.07.878 6.255.043.811.086 1.623.13 2.459.042.897.083 1.793.126 2.717.071 1.458.071 1.458.143 2.947.555 11.986.887 23.978 1.213 35.97.15 5.385.335 10.767.535 16.15.39 10.559.698 21.116.892 31.679.1 5.347.237 10.689.459 16.033 1.386 34.258 1.463 36.18-4.871 42.755-.791.821-1.646 1.587-2.579 2.242-3.753 2.632-7.712 4.47-12.212 6.067-3.675 1.406-6.38 3.459-9.511 5.696-11.941 6.942-26.297-3.225-26.297-17.038 0-64.905 0-130.008 0-196.636 0-8.169 5.112-15.731 13.002-17.848.748-.202 1.496-.405 2.266-.613.779-.207 1.559-.415 2.361-.629.836-.225 1.672-.45 2.533-.681 2.65-.713 5.3-1.421 7.951-2.129 1.751-.471 3.503-.942 5.254-1.413 5.016-1.348 10.036-2.685 15.057-4.017 1.212-.323 2.425-.646 3.674-.978 11.548-3.034 23.174-5.805 34.789-8.618 25.22-6.104 25.22-6.104 50.314-12.613 1.132-.303 2.264-.606 3.431-.919 3.026-.792 4.597-1.204 6.066-1.702 4.067-1.379 7.433-4.424 8.998-8.423 2.92-6.896 2.92-6.896 10.505-6.902z"/><path d="m543 267c9.509 0 18.26.997 27.562 2.445.833.129 1.666.258 2.525.391 14.589 2.294 28.298 5.618 41.977 10.857 1.232.465 1.232.465 2.489.94 17.33 6.659 33.371 15.801 48.063 26.447 1.003.713 2.005 1.425 3.038 2.159 11.611 8.409 21.202 17.808 30.088 28.559 1.083 1.307 2.188 2.599 3.297 3.886 12.89 15.639 25.961 38.478 25.961 58.316-61.05 0-122.1 0-185 0 0-44.22 0-88.44 0-134z"/><path d="m306.192 479h35.453c1.866 3.392 2.472 4.957 2.82 8.544.08.781.161 1.561.243 2.365.053.59.106 1.179.16 1.786 13.407 3.443 26.815 6.865 40.299 10.049 6.237 1.478 12.425 3.077 18.617 4.705 4.133 1.059 8.292 1.988 12.463 2.914 5.033 1.165 10.032 2.434 15.037 3.693 8.021 2.016 16.061 3.86 24.172 5.554 7.79 1.635 15.233 3.618 22.779 6.027 5.909 1.828 11.976 3.165 18.027 4.545 6.428 1.479 6.428 1.479 7.606 2.55.105 3.061.139 6.101.129 9.163.001 1.46.001 1.46.003 2.951.001 3.289-.004 6.579-.01 9.869-.001 2.347 0 4.695 0 7.042 0 5.068-.003 10.136-.009 15.204-.008 7.328-.011 14.655-.013 21.982-.002 11.887-.009 23.774-.019 35.661-.01 11.55-.018 23.1-.022 34.65-.001.712-.001 1.423-.001 2.156-.002 3.569-.003 7.138-.004 10.707-.011 29.628-.03 59.255-.054 88.883-4.744-2.05-8.027-4.905-11.823-8.184-3.116-2.605-3.116-2.605-6.567-4.504-8.548-5.201-8.548-5.201-10.267-9.724-1.15-5.634-.825-11.341-.641-17.042.015-1.916.023-3.832.026-5.748.025-5.18.13-10.356.249-15.535.111-5.42.149-10.84.194-16.261.097-10.254.26-20.507.446-30.761.21-11.678.345-23.356.475-35.034.268-24.014.628-48.027 1.05-72.039-.69-.135-1.38-.27-2.091-.409-3.188-.624-6.376-1.25-9.563-1.876-1.085-.212-2.169-.424-3.287-.642-9.67-1.903-19.26-4.048-28.844-6.279-3.576-.83-7.156-1.64-10.737-2.451-1.371-.314-2.742-.627-4.155-.95-3.604-.82-7.215-1.614-10.827-2.403-10.914-2.404-21.628-4.97-32.239-8.319-5.667-1.775-11.323-3.196-17.156-4.462-6.333-1.377-12.606-2.923-18.883-4.495-14.318-3.826-14.318-3.826-28.94-6.347-.997-.141-1.994-.282-3.022-.428-1.704-3.098-1.204-6.433-1.179-9.833.002-.778.003-1.555.005-2.357.006-2.487.019-4.974.033-7.462.005-1.685.01-3.369.015-5.054.011-4.134.032-8.267.052-12.401z"/><path d="m452 278v124c-43.23-.322-86.46-.644-131-.976 1.231-11.008 1.231-11.008 2.563-14.654.296-.813.592-1.627.897-2.465.322-.835.643-1.67.975-2.531.509-1.335.509-1.335 1.028-2.697 3.237-8.24 7.191-15.951 12.004-23.543.409-.648.818-1.296 1.24-1.963 6.451-10.042 14.003-18.828 22.776-27.328.696-.68 1.391-1.36 2.107-2.06 4.467-4.167 9.459-7.763 14.49-11.369 1.875-1.347 3.733-2.714 5.561-4.112 16.13-12.163 45.38-30.302 67.359-30.302z"/><path d="m721.885 560c.212 32.159.212 32.159-.719 42.082-.381 4.582-.257 9.031.026 13.621 1.079 20.365 1.079 20.365-2.874 25.198-3.087 2.84-6.667 4.778-10.417 6.835-1.919 1.506-3.804 3.048-5.647 4.63-3.024 2.463-6.067 4.902-9.143 7.312-3.386 2.666-6.667 5.422-9.938 8.203-5.061 4.302-10.115 8.524-15.542 12.451-10.211 7.42-19.624 15.749-28.811 24.185-9.542 8.533-9.542 8.533-12.669 8.533v1.95c-.71 0-1.42 0-2.151 0 0-36.674 0-73.347 0-111.132 22.15-10.324 44.285-20.619 66.585-30.665 2.944-1.329 5.883-2.665 8.82-4.007 20.134-9.196 20.134-9.196 22.48-9.196z"/><path d="m543 423h200.926c.81 10.98 1.074 21.995 1.074 33-66.66 0-133.32 0-202 0 0-10.89 0-21.78 0-33z"/><path d="m304 423h200v32c-66 0-132 0-200 0 0-10.56 0-21.12 0-32z"/><path d="m430.159 560c.952.344 1.904.688 2.885 1.043 1.254.447 2.508.894 3.8 1.354 1.861.667 1.861.667 3.76 1.348 4.165 1.333 7.806 1.812 12.186 2.118 1.077.977 1.077.977 1.21 3.661-.002 1.814-.002 1.814-.003 3.666.001.671.002 1.342.003 2.034.001 2.265-.004 4.531-.01 6.796-.001 1.618 0 3.235 0 4.853 0 4.405-.006 8.81-.013 13.215-.007 4.598-.008 9.196-.009 13.795-.003 8.714-.012 17.428-.023 26.141-.012 9.918-.018 19.836-.023 29.754-.012 20.407-.031 40.815-.055 61.222-4.305 0-5.137-1.315-8.217-3.97-3.824-3.343-3.824-3.343-8.187-6.045-4.327-2.379-6.893-4.172-8.186-8.722-.315-4.005-.319-7.926-.219-11.936.003-1.532.001-3.063-.004-4.595-.003-4.145.054-8.288.122-12.433.06-4.336.066-8.672.077-13.008.031-8.206.11-16.41.208-24.615.108-9.344.161-18.687.21-28.031.101-19.216.272-38.43.488-57.645z"/><path d="m502.963 267c.342 44.227.684 88.454 1.037 134.022-13.86.484-13.86.484-28 .978 0-43.582 0-87.163 0-132.065 16.593-2.935 16.593-2.935 26.963-2.935z"/><path d="m379 552c9.125 1.573 17.971 3.748 27 5.878v138.122c-3.99-.941-4.824-1.244-7.557-3.758-.929-.837-.929-.837-1.876-1.691-.636-.586-1.271-1.172-1.925-1.775-1.26-1.155-2.524-2.306-3.793-3.452-.601-.546-1.202-1.093-1.821-1.656-1.792-1.571-1.792-1.571-4.71-2.645-2.203-1.676-2.203-1.676-2.638-3.609-.537-6.174-.771-12.306-.8-18.5-.013-1.522-.013-1.522-.026-3.074-.018-2.186-.034-4.372-.047-6.558-.022-3.469-.051-6.938-.08-10.407-.062-7.366-.116-14.733-.169-22.099-.062-8.536-.127-17.072-.2-25.607-.027-3.401-.049-6.802-.07-10.203-.017-2.107-.035-4.213-.053-6.32-.006-1.398-.006-1.398-.013-2.823-.064-6.643-.557-13.21-1.222-19.823z"/><path d="m329 538c2.75.959 2.75.959 5.556 1.937 12.1 2.875 12.1 2.875 24.444 5.809-.367 37.704-.733 75.408-1.111 114.254-3.109-2.709-6.216-5.418-9.306-8.143-1.342-1.179-2.685-2.358-4.027-3.537-.671-.592-1.341-1.184-2.032-1.794-.659-.578-1.317-1.155-1.996-1.75-.587-.516-1.175-1.033-1.78-1.566-1.991-1.735-1.991-1.735-4.826-3.109-3.2-2.811-3.369-4.578-3.449-8.46.011-.813.022-1.625.034-2.463-.01-.863-.02-1.727-.03-2.616-.026-2.856-.014-5.711-.001-8.568-.012-1.99-.026-3.98-.043-5.97-.038-5.246-.044-10.492-.043-15.738-.003-6.347-.039-12.694-.075-19.041-.028-4.946-.05-9.89-.051-14.836-.004-1.807-.009-3.615-.013-5.423.002-.801.005-1.602.007-2.427-.021-5.568-.523-11.029-1.258-16.559z"/><path d="m701.4 478c.528.289 1.056.577 1.6.875-.2 2.078-.2 2.078-.8 4.375-1.65 1.148-1.65 1.148-3.2 1.75 1.5-6.016 1.5-6.016 2.4-7z"/><path d="m266.657 398h1.343c-.443 3.96-.887 7.92-1.343 12-.444 0-.887 0-1.344 0-.3-1.306-.575-2.614-.84-3.923-.155-.728-.311-1.457-.472-2.207-.036-2.474.82-3.772 2.656-5.87z"/><path d="m815.2 325c2.585 2.622 4.081 4.644 4.8 8-1.188-.33-2.376-.66-3.6-1 0-.99 0-1.98 0-3-.792 0-1.584 0-2.4 0 .396-1.32.792-2.64 1.2-4z"/><path d="m404 193.704c-1.188 0-2.376 0-3.6 0-.396 1.088-.792 2.175-1.2 3.296-3.564-.544-3.564-.544-7.2-1.099 4.562-2.784 6.821-3.669 12-2.197z"/></g></svg>