<svg width="24" height="24" viewBox="0 0 100 100" fill="none" xmlns="http://www.w3.org/2000/svg">
 <rect width="100" height="100" rx="100" fill="#EA3E3C" />
 <path
  d="M51.8625 17.5975C56.1535 17.5552 56.1535 17.5552 58.0315 17.8834C58.1977 17.9092 58.364 17.9349 58.5303 17.9604C61.0565 18.3673 63.3568 19.2124 65.6399 20.2653C65.7266 20.3047 65.8134 20.3442 65.9029 20.3848C67.7852 21.2444 69.5005 22.3331 71.0891 23.6C71.1766 23.6686 71.2641 23.7373 71.3542 23.808C72.7329 24.9227 74.0213 26.1353 75.0989 27.5063C75.1846 27.6126 75.2703 27.7188 75.356 27.8249C77.1508 30.0736 78.5619 32.5738 79.52 35.2238C79.547 35.2979 79.574 35.372 79.6018 35.4484C79.9982 36.5573 80.2387 37.6934 80.4454 38.8443C80.4628 38.9356 80.4803 39.0268 80.4983 39.1208C80.6692 40.0948 80.6816 41.049 80.6809 42.0335C80.6815 42.2168 80.6822 42.4001 80.683 42.5834C80.6848 43.078 80.6853 43.5726 80.6854 44.0672C80.6856 44.3777 80.686 44.6883 80.6865 44.9989C80.6884 46.087 80.6893 47.1751 80.6891 48.2632C80.689 49.2697 80.6912 50.2762 80.6944 51.2827C80.6971 52.1526 80.6982 53.0225 80.6981 53.8924C80.698 54.4093 80.6986 54.9263 80.7008 55.4432C80.7262 61.8287 80.7262 61.8287 79.52 64.5691C79.4723 64.7452 79.4275 64.9219 79.3851 65.0991C79.2535 65.5954 79.0791 66.0489 78.8578 66.5164C78.7346 66.7772 78.6169 67.0385 78.5019 67.3024C77.7284 69.0576 76.7528 70.6842 75.5102 72.1913C75.4669 72.2449 75.4237 72.2984 75.3791 72.3536C74.6312 73.2787 73.806 74.1235 72.9398 74.9543C72.8626 75.029 72.8626 75.029 72.7838 75.1052C72.1229 75.7427 71.4289 76.3154 70.6778 76.8599C70.573 76.9374 70.4682 77.0149 70.3602 77.0947C69.5742 77.6709 68.7565 78.186 67.9018 78.6702C67.7966 78.7307 67.7966 78.7307 67.6892 78.7926C64.9213 80.3776 61.8428 81.4468 58.6484 82.0048C58.5211 82.0282 58.5211 82.0282 58.3912 82.0521C56.2466 82.4316 54.0322 82.3095 51.8625 82.2907C51.8625 80.7186 51.8625 79.1465 51.8625 77.5268C52.5241 77.458 53.1857 77.3893 53.8674 77.3184C58.6282 76.7983 63.0229 75.6374 66.7708 72.763C66.8299 72.7181 66.8889 72.6732 66.9497 72.6269C68.9675 71.0891 70.6478 69.2647 71.9116 67.1416C71.9542 67.0706 71.9967 66.9996 72.0406 66.9264C73.5445 64.3981 74.8133 61.3773 74.8035 58.4509C74.8037 58.3759 74.8039 58.3009 74.804 58.2236C74.8044 57.9743 74.8041 57.725 74.8038 57.4757C74.8039 57.2961 74.8041 57.1166 74.8043 56.937C74.8048 56.4506 74.8046 55.9641 74.8043 55.4777C74.804 54.9676 74.8043 54.4576 74.8044 53.9475C74.8046 53.0908 74.8044 52.234 74.8039 51.3773C74.8033 50.3885 74.8035 49.3997 74.8041 48.4109C74.8046 47.5606 74.8046 46.7102 74.8043 45.8599C74.8042 45.3526 74.8042 44.8454 74.8045 44.3381C74.8048 43.8608 74.8046 43.3836 74.804 42.9063C74.8039 42.7317 74.8039 42.5572 74.8041 42.3826C74.8058 41.0109 74.7162 39.7657 74.3278 38.4334C74.3098 38.3712 74.2918 38.3091 74.2733 38.245C73.9305 37.0693 73.49 35.949 72.9398 34.8427C72.889 34.7394 72.889 34.7394 72.8371 34.634C72.0219 32.9982 70.9952 31.5375 69.7252 30.1751C69.5507 29.9876 69.3782 29.7987 69.2063 29.6091C69.0993 29.4917 68.9922 29.3744 68.885 29.2571C68.8377 29.2053 68.7905 29.1535 68.7418 29.1001C68.1369 28.4462 67.4896 27.8852 66.7451 27.3694C66.6392 27.2949 66.6392 27.2949 66.5311 27.2188C66.3035 27.0594 66.0745 26.9017 65.8455 26.7441C65.7573 26.6824 65.6692 26.6207 65.5784 26.5571C64.9269 26.1071 64.2605 25.7188 63.545 25.3626C63.3857 25.283 63.3857 25.283 63.2231 25.2019C62.21 24.7069 61.1712 24.3212 60.0878 23.9811C59.9681 23.9424 59.8484 23.9037 59.7251 23.8639C58.3656 23.4492 56.9553 23.2224 55.5382 23.0581C55.443 23.0467 55.3479 23.0354 55.2499 23.0236C54.1197 22.9017 53.0074 22.8839 51.8625 22.8378C51.8625 21.1085 51.8625 19.3792 51.8625 17.5975Z"
  fill="white" />
 <path
  d="M48.1375 17.5795C48.1375 19.2471 48.1375 20.9148 48.1375 22.633C47.1201 22.6802 47.1201 22.6802 46.0822 22.7283C45.5694 22.7888 45.0678 22.8537 44.56 22.9369C44.429 22.9579 44.298 22.979 44.163 23.0006C40.3342 23.6365 36.2867 24.9577 33.3392 27.4004C33.2535 27.4708 33.1677 27.5413 33.0794 27.6138C32.9045 27.7591 32.7302 27.9051 32.5568 28.0518C32.3299 28.243 32.1001 28.4301 31.8683 28.6161C31.5575 28.8683 31.2607 29.1252 30.9755 29.4027C30.9129 29.4625 30.8502 29.5222 30.7857 29.5838C28.9128 31.4318 27.4564 33.7263 26.4538 36.0772C26.4246 36.1449 26.3954 36.2126 26.3653 36.2823C25.1963 39.0802 25.128 42.1202 25.1513 45.0761C25.1545 45.5568 25.1542 46.0375 25.1543 46.5181C25.1551 47.3223 25.1581 48.1263 25.1628 48.9304C25.1688 49.9581 25.1709 50.9858 25.1718 52.0135C25.1726 52.9057 25.1752 53.7979 25.178 54.69C25.1789 54.9732 25.1795 55.2564 25.18 55.5395C25.181 55.9855 25.1832 56.4313 25.1861 56.8772C25.187 57.0394 25.1876 57.2016 25.1878 57.3638C25.1963 62.5211 27.4795 67.355 31.2838 71.0703C31.3359 71.1214 31.388 71.1724 31.4417 71.2251C34.8505 74.5437 39.2509 76.2914 44.0269 77.1727C44.1208 77.1901 44.2148 77.2075 44.3116 77.2255C45.5797 77.4551 46.8462 77.5405 48.1375 77.6494C48.1375 79.2227 48.1375 80.7959 48.1375 82.4169C42.0578 82.5044 36.4947 81.4599 31.3866 78.2215C31.318 78.1785 31.2494 78.1355 31.1788 78.0912C30.1271 77.4294 29.1452 76.7215 28.2008 75.9331C28.1431 75.8854 28.0853 75.8377 28.0258 75.7886C25.5604 73.7483 23.548 71.2582 22.1299 68.4897C22.0382 68.3117 21.9441 68.135 21.8494 67.9584C20.5032 65.4165 19.8711 62.6102 19.4657 59.8191C19.4483 59.7034 19.4309 59.5878 19.413 59.4686C19.3609 59.0793 19.3471 58.6931 19.3464 58.3012C19.3456 58.1931 19.3456 58.1931 19.3448 58.0828C19.3432 57.8433 19.3423 57.6037 19.3415 57.3642C19.3405 57.1915 19.3395 57.0188 19.3384 56.846C19.3352 56.2795 19.3331 55.7129 19.3312 55.1463C19.3309 55.0492 19.3305 54.9522 19.3302 54.8522C19.327 53.9332 19.3243 53.0142 19.3225 52.0952C19.3203 50.9292 19.316 49.7634 19.3088 48.5975C19.3039 47.7729 19.3015 46.9483 19.3007 46.1238C19.3002 45.6341 19.2988 45.1445 19.2946 44.6548C19.253 39.527 20.1482 34.6409 22.9597 30.1655C23.0274 30.0576 23.0951 29.9497 23.1649 29.8385C24.0235 28.5102 24.9971 27.2702 26.1087 26.1156C26.2366 25.9824 26.3623 25.8475 26.4879 25.7124C27.4015 24.7411 28.4503 23.9094 29.5368 23.1097C29.6355 23.0355 29.7342 22.9612 29.8359 22.8847C35.1164 18.9949 41.5158 17.5274 48.1375 17.5795Z"
  fill="white" />
 <path
  d="M67.7365 46.6801C67.8033 46.68 67.8701 46.6799 67.939 46.6798C68.081 46.6797 68.2229 46.6799 68.3649 46.6803C68.5805 46.6808 68.7961 46.6803 69.0118 46.6797C69.1498 46.6798 69.2879 46.6799 69.4259 46.6801C69.5512 46.6802 69.6765 46.6803 69.8056 46.6804V46.6804C70.3663 46.7001 70.7737 47.202 70.7737 47.7631C70.7737 48.3488 70.7737 48.9361 70.7737 49.5276C70.7737 50.5701 70.1138 51.4983 69.1292 51.8408V51.8408C68.7994 51.9777 68.4759 52.1153 68.1528 52.2638C67.9867 52.3385 67.8205 52.413 67.6542 52.4873C67.5736 52.5233 67.493 52.5593 67.41 52.5964C67.0658 52.7473 66.7169 52.8873 66.3671 53.0265C65.6559 53.3107 64.9572 53.6165 64.2593 53.9277C63.7346 54.1613 63.2082 54.3909 62.6791 54.6159C61.2218 55.2356 59.7906 55.8855 58.3751 56.5834C58.0451 56.7454 57.7135 56.9038 57.3804 57.0603C57.2896 57.1031 57.1989 57.1458 57.1054 57.1899C56.9804 57.2412 56.931 57.2615 56.8661 57.2696C56.7804 57.2802 56.7179 57.358 56.7425 57.4408V57.4408C56.7941 57.6492 56.8156 57.8382 56.8264 58.0515C56.8305 58.1308 56.8346 58.2101 56.8388 58.2917C56.8428 58.3793 56.8467 58.4668 56.8508 58.557C56.8576 58.6994 56.8576 58.6994 56.8645 58.8448C56.9175 60.0153 56.9492 61.1864 56.9803 62.3575C56.9947 62.8834 57.0124 63.409 57.0314 63.9347C57.0687 64.9658 57.0981 65.9968 57.1166 67.0284C57.1262 67.5505 57.1392 68.0721 57.1605 68.594C57.223 70.1756 57.2577 71.0515 57.2129 71.6032C57.1333 72.5836 56.2073 73.2454 55.2826 73.5807V73.5807C54.9316 73.7181 54.6732 73.9185 54.3741 74.137V74.137C53.2399 74.8112 51.8625 73.8439 51.8625 72.5245C51.8625 66.1604 51.8625 59.7773 51.8625 53.2439C51.8625 52.461 52.3493 51.7346 53.1043 51.5274V51.5274C53.1757 51.5077 53.2472 51.4879 53.3208 51.4676C53.3952 51.4473 53.4696 51.4271 53.5463 51.4062C53.6261 51.3842 53.7059 51.3622 53.7882 51.3396C54.0412 51.2701 54.2944 51.2009 54.5476 51.1317C54.7149 51.0858 54.8821 51.0398 55.0494 50.9937C55.5285 50.8621 56.0079 50.7316 56.4875 50.6014C56.6033 50.5699 56.7191 50.5384 56.8384 50.5059C57.9413 50.2096 59.0518 49.9391 60.1612 49.6643C62.5699 49.0683 62.5699 49.0683 64.9667 48.4326C65.0748 48.403 65.183 48.3734 65.2944 48.3429C65.5773 48.2671 65.7271 48.227 65.8649 48.1797C66.2598 48.0442 66.5839 47.744 66.7332 47.3541V47.3541C67.012 46.6807 67.012 46.6807 67.7365 46.6801Z"
  fill="white" />
 <path
  d="M51.8625 26.0742C52.7707 26.0742 53.6065 26.1716 54.4949 26.313C54.5745 26.3256 54.6541 26.3382 54.7361 26.3512C56.1296 26.5752 57.4389 26.8998 58.7454 27.4115C58.8631 27.4569 58.8631 27.4569 58.9831 27.5032C60.6383 28.1535 62.1704 29.0463 63.5737 30.086C63.6694 30.1555 63.7652 30.2251 63.8638 30.2968C64.9728 31.118 65.8889 32.0358 66.7376 33.0858C66.841 33.2134 66.9465 33.3395 67.0525 33.4653C68.2836 34.9925 69.532 37.2229 69.532 39.1602C63.7011 39.1602 57.8701 39.1602 51.8625 39.1602C51.8625 34.8418 51.8625 30.5234 51.8625 26.0742Z"
  fill="white" />
 <path
  d="M29.2447 46.7773C30.3622 46.7773 31.4796 46.7773 32.6309 46.7773C32.8091 47.1086 32.8669 47.2614 32.9002 47.6118C32.9079 47.688 32.9155 47.7642 32.9234 47.8427C32.9285 47.9002 32.9335 47.9578 32.9387 48.0171C34.2192 48.3533 35.4998 48.6875 36.7877 48.9985C37.3834 49.1428 37.9744 49.2989 38.5658 49.4579C38.9606 49.5613 39.3578 49.652 39.7562 49.7425C40.2369 49.8563 40.7143 49.9802 41.1923 50.1031C41.9585 50.3 42.7264 50.4801 43.5011 50.6455C44.2451 50.8052 44.956 50.9988 45.6767 51.234C46.2411 51.4126 46.8206 51.5431 47.3985 51.6779C48.0124 51.8223 48.0124 51.8223 48.1249 51.9269C48.135 52.2259 48.1382 52.5227 48.1373 52.8217C48.1374 52.9644 48.1374 52.9644 48.1375 53.1099C48.1377 53.4312 48.1371 53.7524 48.1366 54.0737C48.1365 54.303 48.1366 54.5322 48.1366 54.7615C48.1366 55.2564 48.1363 55.7513 48.1358 56.2462C48.1349 56.9618 48.1347 57.6773 48.1345 58.3929C48.1343 59.5537 48.1336 60.7146 48.1327 61.8754C48.1317 63.0034 48.131 64.1313 48.1306 65.2592C48.1305 65.3287 48.1305 65.3982 48.1305 65.4698C48.1303 65.8183 48.1302 66.1668 48.1301 66.5154C48.129 69.4087 48.1272 72.302 48.1249 75.1953C47.6718 74.9951 47.3583 74.7163 46.9957 74.3961C46.6981 74.1417 46.6981 74.1417 46.3685 73.9562C45.5521 73.4484 45.5521 73.4484 45.3879 73.0066C45.278 72.4564 45.3091 71.8991 45.3267 71.3424C45.3281 71.1553 45.3289 70.9682 45.3292 70.7811C45.3316 70.2752 45.3416 69.7697 45.3529 69.264C45.3635 68.7347 45.3671 68.2054 45.3714 67.676C45.3807 66.6746 45.3963 65.6733 45.4141 64.672C45.4341 63.5316 45.447 62.3911 45.4594 61.2507C45.485 58.9055 45.5194 56.5606 45.5597 54.2156C45.4938 54.2024 45.4279 54.1893 45.36 54.1757C45.0555 54.1148 44.7511 54.0536 44.4466 53.9925C44.343 53.9718 44.2394 53.9511 44.1327 53.9298C43.2091 53.744 42.2931 53.5345 41.3778 53.3166C41.0363 53.2356 40.6942 53.1564 40.3522 53.0772C40.2213 53.0466 40.0903 53.016 39.9554 52.9845C39.6112 52.9044 39.2663 52.8269 38.9213 52.7498C37.879 52.515 36.8556 52.2644 35.8422 51.9374C35.3009 51.7641 34.7607 51.6253 34.2036 51.5017C33.5987 51.3672 32.9995 51.2162 32.4 51.0627C31.0325 50.6891 31.0325 50.6891 29.6359 50.4428C29.5407 50.4291 29.4455 50.4153 29.3473 50.4011C29.1846 50.0985 29.2323 49.7728 29.2347 49.4408C29.2349 49.3649 29.235 49.2889 29.2351 49.2107C29.2357 48.9678 29.237 48.7249 29.2383 48.4819C29.2388 48.3174 29.2393 48.1529 29.2397 47.9884C29.2408 47.5847 29.2428 47.181 29.2447 46.7773Z"
  fill="white" />
 <path
  d="M43.1709 27.1484C43.1709 31.1445 43.1709 35.1406 43.1709 39.2578C39.042 39.2263 34.9131 39.1949 30.659 39.1625C30.7765 38.0875 30.7765 38.0875 30.9038 37.7315C30.932 37.652 30.9603 37.5726 30.9894 37.4908C31.0202 37.4092 31.0509 37.3276 31.0826 37.2436C31.1312 37.1132 31.1312 37.1132 31.1808 36.9802C31.49 36.1755 31.8676 35.4225 32.3273 34.681C32.3664 34.6178 32.4054 34.5545 32.4457 34.4894C33.0618 33.5087 33.7832 32.6507 34.6211 31.8206C34.6875 31.7542 34.7539 31.6878 34.8223 31.6194C35.249 31.2125 35.7257 30.8613 36.2063 30.5091C36.3854 30.3776 36.5628 30.2442 36.7374 30.1076C38.278 28.9198 41.0717 27.1484 43.1709 27.1484Z"
  fill="white" />
 <path
  d="M68.948 54.6875C68.9682 57.8281 68.9682 57.8281 68.8793 58.797C68.8429 59.2445 68.8548 59.679 68.8817 60.1273C68.9848 62.116 68.9848 62.116 68.6072 62.5879C68.3125 62.8654 67.9705 63.0546 67.6124 63.2555C67.4291 63.4025 67.249 63.5532 67.073 63.7077C66.7842 63.9482 66.4935 64.1863 66.1997 64.4216C65.8763 64.682 65.563 64.9512 65.2506 65.2227C64.7671 65.6429 64.2845 66.0552 63.7662 66.4387C62.7909 67.1633 61.8918 67.9766 61.0143 68.8005C60.103 69.6338 60.103 69.6338 59.8044 69.6338C59.8044 69.6967 59.8044 69.7595 59.8044 69.8242C59.7365 69.8242 59.6687 69.8242 59.5989 69.8242C59.5989 66.2428 59.5989 62.6614 59.5989 58.9715C61.7144 57.9633 63.8286 56.9579 65.9585 55.9768C66.2396 55.847 66.5204 55.7166 66.8009 55.5856C68.7239 54.6875 68.7239 54.6875 68.948 54.6875Z"
  fill="white" />
 <path
  d="M51.8625 41.3086C58.1954 41.3086 64.5283 41.3086 71.0531 41.3086C71.1305 42.3809 71.1557 43.4566 71.1557 44.5312C64.7889 44.5312 58.4222 44.5312 51.8625 44.5312C51.8625 43.4678 51.8625 42.4043 51.8625 41.3086Z"
  fill="white" />
 <path
  d="M29.0353 41.3086C35.3391 41.3086 41.6428 41.3086 48.1375 41.3086C48.1375 42.3398 48.1375 43.3711 48.1375 44.4336C41.8338 44.4336 35.5301 44.4336 29.0353 44.4336C29.0353 43.4023 29.0353 42.3711 29.0353 41.3086Z"
  fill="white" />
 <path
  d="M41.0849 54.6875C41.1759 54.7211 41.2668 54.7547 41.3605 54.7894C41.4802 54.833 41.6 54.8766 41.7234 54.9216C41.9012 54.9868 41.9012 54.9868 42.0826 55.0533C42.4804 55.1834 42.8281 55.2302 43.2464 55.26C43.3493 55.3555 43.3493 55.3555 43.362 55.6176C43.3619 55.7948 43.3619 55.7948 43.3617 55.9756C43.3618 56.0411 43.3619 56.1066 43.362 56.1742C43.3622 56.3954 43.3616 56.6167 43.361 56.8379C43.361 56.9959 43.361 57.1538 43.3611 57.3118C43.3611 57.742 43.3605 58.1721 43.3598 58.6023C43.3591 59.0514 43.3591 59.5004 43.359 59.9495C43.3586 60.8005 43.3578 61.6514 43.3568 62.5024C43.3556 63.4709 43.355 64.4394 43.3545 65.408C43.3534 67.4009 43.3516 69.3938 43.3493 71.3867C42.9381 71.3867 42.8587 71.2583 42.5645 70.9991C42.1993 70.6726 42.1993 70.6726 41.7826 70.4087C41.3693 70.1764 41.1242 70.0012 41.0007 69.5569C40.9706 69.1658 40.9702 68.7829 40.9798 68.3913C40.98 68.2417 40.9799 68.0922 40.9794 67.9426C40.9791 67.5378 40.9845 67.1332 40.991 66.7284C40.9968 66.305 40.9974 65.8816 40.9985 65.4581C41.0013 64.6568 41.0089 63.8556 41.0182 63.0543C41.0286 62.1418 41.0337 61.2294 41.0383 60.3169C41.048 58.4404 41.0643 56.5639 41.0849 54.6875Z"
  fill="white" />
 <path
  d="M48.0385 26.0742C48.0712 30.3933 48.1039 34.7123 48.1376 39.1623C46.8138 39.2096 46.8138 39.2096 45.4633 39.2578C45.4633 35.0018 45.4633 30.7458 45.4633 26.3608C47.048 26.0742 47.048 26.0742 48.0385 26.0742Z"
  fill="white" />
 <path
  d="M36.1987 53.9062C37.0702 54.0598 37.9151 54.2723 38.7775 54.4802C38.7775 58.9314 38.7775 63.3827 38.7775 67.9687C38.3963 67.8769 38.3167 67.8472 38.0557 67.6018C37.967 67.52 37.967 67.52 37.8765 67.4366C37.8158 67.3794 37.7551 67.3222 37.6926 67.2632C37.5723 67.1505 37.4515 67.0381 37.3304 66.9262C37.273 66.8728 37.2156 66.8194 37.1565 66.7645C36.9853 66.611 36.9853 66.611 36.7066 66.5061C36.4962 66.3425 36.4962 66.3425 36.4546 66.1537C36.4033 65.5508 36.381 64.952 36.3782 64.347C36.377 64.1984 36.377 64.1984 36.3758 64.0468C36.374 63.8334 36.3725 63.6199 36.3712 63.4064C36.3691 63.0677 36.3664 62.7289 36.3636 62.3902C36.3577 61.6708 36.3525 60.9514 36.3474 60.232C36.3415 59.3984 36.3354 58.5649 36.3284 57.7313C36.3258 57.3992 36.3237 57.0671 36.3217 56.735C36.32 56.5292 36.3183 56.3235 36.3166 56.1178C36.316 55.9813 36.316 55.9813 36.3154 55.8421C36.3092 55.1933 36.2622 54.552 36.1987 53.9062Z"
  fill="white" />
 <path
  d="M31.4231 52.5391C31.6858 52.6327 31.6858 52.6327 31.9537 52.7282C33.1094 53.009 33.1094 53.009 34.2884 53.2955C34.2534 56.9775 34.2184 60.6595 34.1823 64.4531C33.8854 64.1886 33.5886 63.924 33.2935 63.6579C33.1653 63.5428 33.0371 63.4277 32.9088 63.3125C32.8448 63.2547 32.7808 63.1969 32.7148 63.1373C32.6519 63.0809 32.589 63.0245 32.5241 62.9665C32.468 62.916 32.4119 62.8655 32.3542 62.8135C32.164 62.644 32.164 62.644 31.8932 62.5098C31.5875 62.2354 31.5714 62.0628 31.5638 61.6837C31.5648 61.6043 31.5659 61.525 31.567 61.4432C31.5661 61.3589 31.5652 61.2746 31.5642 61.1877C31.5617 60.9088 31.5629 60.63 31.564 60.351C31.5629 60.1567 31.5615 59.9623 31.5599 59.768C31.5563 59.2557 31.5557 58.7434 31.5559 58.231C31.5556 57.6112 31.5521 56.9914 31.5487 56.3715C31.546 55.8886 31.5439 55.4057 31.5438 54.9228C31.5434 54.7463 31.543 54.5697 31.5426 54.3932C31.5428 54.315 31.543 54.2367 31.5433 54.1561C31.5413 53.6124 31.4933 53.0791 31.4231 52.5391Z"
  fill="white" />
 <path
  d="M66.9914 46.6797C67.0419 46.7079 67.0923 46.7361 67.1443 46.7651C67.1251 46.9681 67.1251 46.9681 67.0678 47.1924C66.9102 47.3045 66.9102 47.3045 66.7622 47.3633C66.9055 46.7758 66.9055 46.7758 66.9914 46.6797Z"
  fill="white" />
 <path
  d="M25.4686 38.8672C25.511 38.8672 25.5533 38.8672 25.5969 38.8672C25.5546 39.2539 25.5123 39.6406 25.4686 40.0391C25.4263 40.0391 25.3839 40.0391 25.3403 40.0391C25.3116 39.9116 25.2854 39.7838 25.2601 39.6559C25.2452 39.5848 25.2303 39.5137 25.215 39.4404C25.2116 39.1988 25.2934 39.0721 25.4686 38.8672Z"
  fill="white" />
 <path
  d="M77.8606 31.7383C78.1074 31.9943 78.2504 32.1918 78.319 32.5195C78.2056 32.4873 78.0921 32.4551 77.9752 32.4219C77.9752 32.3252 77.9752 32.2285 77.9752 32.1289C77.8996 32.1289 77.8239 32.1289 77.746 32.1289C77.7838 32 77.8216 31.8711 77.8606 31.7383Z"
  fill="white" />
 <path
  d="M38.5864 18.9164C38.473 18.9164 38.3595 18.9164 38.2426 18.9164C38.2048 19.0226 38.167 19.1288 38.128 19.2383C37.7876 19.1852 37.7876 19.1852 37.4403 19.131C37.876 18.8591 38.0918 18.7727 38.5864 18.9164Z"
  fill="white" />
</svg>